<svg xmlns="http://www.w3.org/2000/svg" xmlns:xlink="http://www.w3.org/1999/xlink" width="500" zoomAndPan="magnify" viewBox="0 0 375 374.999991" height="500" preserveAspectRatio="xMidYMid meet" version="1.0"><defs><clipPath id="03310400c4"><path d="M 119.453125 112.5 L 255 112.5 L 255 262 L 119.453125 262 Z M 119.453125 112.5 " clip-rule="nonzero"/></clipPath></defs><g clip-path="url(#03310400c4)"><path fill="#8cc84b" d="M 181.066406 114.496094 C 184.792969 112.378906 189.546875 112.371094 193.183594 114.496094 L 248.859375 145.957031 C 252.339844 147.921875 254.671875 151.8125 254.636719 155.835938 L 254.636719 218.921875 C 254.660156 223.113281 252.101562 227.089844 248.429688 229.015625 L 193.054688 260.332031 C 192.105469 260.855469 191.105469 261.246094 190.054688 261.503906 C 189.003906 261.757812 187.9375 261.871094 186.855469 261.84375 C 185.773438 261.8125 184.714844 261.640625 183.679688 261.328125 C 182.644531 261.011719 181.667969 260.566406 180.753906 259.992188 L 164.136719 250.363281 C 163.003906 249.6875 161.730469 249.148438 160.929688 248.050781 C 161.636719 247.097656 162.894531 246.976562 163.921875 246.554688 C 166.234375 245.816406 168.347656 244.6875 170.472656 243.492188 C 171.011719 243.117188 171.667969 243.257812 172.179688 243.59375 L 186.351562 251.808594 C 187.363281 252.390625 188.386719 251.621094 189.253906 251.128906 L 243.628906 220.371094 C 244.300781 220.042969 244.671875 219.332031 244.617188 218.59375 L 244.617188 156.117188 C 244.691406 155.277344 244.210938 154.507812 243.449219 154.167969 L 188.214844 122.984375 C 187.890625 122.761719 187.527344 122.648438 187.132812 122.644531 C 186.734375 122.644531 186.375 122.757812 186.046875 122.980469 L 130.890625 154.230469 C 130.144531 154.570312 129.632812 155.328125 129.726562 156.167969 L 129.726562 218.644531 C 129.660156 219.382812 130.050781 220.078125 130.726562 220.398438 L 145.46875 228.738281 C 148.234375 230.234375 151.632812 231.074219 154.683594 229.976562 C 155.347656 229.726562 155.964844 229.378906 156.523438 228.9375 C 157.085938 228.496094 157.570312 227.984375 157.972656 227.394531 C 158.378906 226.808594 158.6875 226.171875 158.894531 225.488281 C 159.105469 224.804688 159.210938 224.105469 159.207031 223.390625 L 159.222656 161.289062 C 159.15625 160.371094 160.023438 159.609375 160.914062 159.699219 L 168 159.699219 C 168.933594 159.675781 169.664062 160.667969 169.539062 161.59375 L 169.523438 224.089844 C 169.527344 229.640625 167.253906 235.675781 162.132812 238.402344 C 155.820312 241.671875 148.015625 240.984375 141.78125 237.839844 L 125.933594 229.054688 C 122.203125 227.1875 119.699219 223.148438 119.722656 218.960938 L 119.722656 155.878906 C 119.730469 154.851562 119.871094 153.847656 120.148438 152.859375 C 120.425781 151.871094 120.828125 150.941406 121.351562 150.058594 C 121.875 149.179688 122.507812 148.386719 123.246094 147.675781 C 123.984375 146.964844 124.800781 146.363281 125.699219 145.875 Z M 197.117188 158.222656 C 205.167969 157.757812 213.785156 157.914062 221.03125 161.890625 C 226.636719 164.9375 229.746094 171.332031 229.847656 177.585938 C 229.691406 178.425781 228.816406 178.890625 228.011719 178.832031 C 225.683594 178.828125 223.34375 178.863281 221.003906 178.816406 C 220.007812 178.855469 219.4375 177.9375 219.308594 177.0625 C 218.640625 174.070312 217.011719 171.113281 214.207031 169.667969 C 209.898438 167.503906 204.902344 167.613281 200.203125 167.660156 C 196.773438 167.847656 193.085938 168.140625 190.183594 170.160156 C 187.945312 171.691406 187.273438 174.832031 188.070312 177.269531 C 188.816406 179.0625 190.882812 179.636719 192.5625 180.167969 C 202.269531 182.710938 212.546875 182.503906 222.070312 185.808594 C 226.007812 187.171875 229.863281 189.828125 231.214844 193.960938 C 232.976562 199.503906 232.207031 206.128906 228.277344 210.578125 C 225.089844 214.242188 220.449219 216.1875 215.808594 217.316406 C 209.644531 218.695312 203.246094 218.730469 196.988281 218.113281 C 191.101562 217.4375 184.976562 215.886719 180.429688 211.867188 C 176.542969 208.484375 174.652344 203.214844 174.835938 198.128906 C 174.882812 197.269531 175.738281 196.671875 176.5625 196.742188 L 183.554688 196.742188 C 184.496094 196.675781 185.183594 197.492188 185.230469 198.378906 C 185.664062 201.183594 186.734375 204.21875 189.210938 205.855469 C 193.996094 208.949219 199.992188 208.734375 205.464844 208.824219 C 210 208.621094 215.09375 208.5625 218.796875 205.550781 C 220.753906 203.835938 221.328125 200.972656 220.800781 198.503906 C 220.226562 196.421875 218.003906 195.453125 216.140625 194.765625 C 206.5625 191.730469 196.167969 192.832031 186.683594 189.390625 C 182.832031 188.027344 179.105469 185.449219 177.628906 181.480469 C 175.566406 175.875 176.511719 168.925781 180.859375 164.625 C 185.054688 160.351562 191.207031 158.699219 197.035156 158.113281 Z M 197.117188 158.222656 " fill-opacity="1" fill-rule="nonzero"/></g></svg>