<svg xmlns="http://www.w3.org/2000/svg" xmlns:xlink="http://www.w3.org/1999/xlink" width="500" zoomAndPan="magnify" viewBox="0 0 375 374.999991" height="500" preserveAspectRatio="xMidYMid meet" version="1.0"><defs><clipPath id="1c5b3a1c15"><path d="M 112.5 112.5 L 262.5 112.5 L 262.5 262.5 L 112.5 262.5 Z M 112.5 112.5 " clip-rule="nonzero"/></clipPath><clipPath id="a404bda032"><path d="M 233 164 L 262.5 164 L 262.5 204 L 233 204 Z M 233 164 " clip-rule="nonzero"/></clipPath><clipPath id="1a21c7e77a"><path d="M 112.5 164 L 142 164 L 142 200 L 112.5 200 Z M 112.5 164 " clip-rule="nonzero"/></clipPath></defs><g clip-path="url(#1c5b3a1c15)"><path fill="#f2f2f2" d="M 262.5 187.5 C 262.5 228.921875 228.921875 262.5 187.5 262.5 C 149.285156 262.5 117.746094 233.917969 113.09375 196.960938 C 112.703125 193.863281 112.5 190.703125 112.5 187.5 C 112.5 181.628906 113.171875 175.914062 114.449219 170.429688 C 122.175781 137.234375 151.949219 112.5 187.5 112.5 C 222.960938 112.5 252.675781 137.113281 260.488281 170.1875 C 261.511719 174.511719 262.160156 178.980469 262.394531 183.558594 C 262.464844 184.863281 262.5 186.175781 262.5 187.5 Z M 262.5 187.5 " fill-opacity="1" fill-rule="nonzero"/></g><path fill="#3b8739" d="M 183.75 193.523438 L 183.75 174.023438 L 166.859375 164.273438 L 149.972656 174.023438 L 149.972656 193.523438 L 166.859375 203.273438 Z M 183.75 193.523438 " fill-opacity="1" fill-rule="nonzero"/><g clip-path="url(#a404bda032)"><path fill="#333333" d="M 250.253906 190.5625 L 261.261719 196.917969 L 250.253906 203.273438 L 233.371094 193.523438 L 233.371094 174.023438 L 250.253906 164.273438 L 260.488281 170.1875 C 261.511719 174.511719 262.160156 178.980469 262.394531 183.554688 L 256.140625 187.167969 L 256.140625 180.375 L 250.253906 176.980469 L 244.371094 180.375 L 244.371094 187.167969 Z M 250.253906 190.5625 " fill-opacity="1" fill-rule="nonzero"/></g><path fill="#66a060" d="M 253.53125 185.664062 L 253.53125 181.878906 L 250.253906 179.988281 L 246.976562 181.878906 L 246.976562 185.664062 L 250.253906 187.558594 Z M 253.53125 185.664062 " fill-opacity="1" fill-rule="nonzero"/><g clip-path="url(#1a21c7e77a)"><path fill="#333333" d="M 141.996094 174.023438 L 141.996094 199.738281 L 130.734375 193.3125 L 130.734375 180.132812 L 125.113281 176.882812 L 119.488281 180.132812 L 119.488281 193.3125 L 113.09375 196.960938 C 112.703125 193.863281 112.5 190.703125 112.5 187.5 C 112.5 181.628906 113.171875 175.914062 114.449219 170.429688 L 125.113281 164.273438 Z M 141.996094 174.023438 " fill-opacity="1" fill-rule="nonzero"/></g><path fill="#6da75d" d="M 166.859375 164.273438 L 183.746094 193.519531 L 166.859375 203.269531 L 149.972656 174.019531 Z M 166.859375 164.273438 " fill-opacity="1" fill-rule="nonzero"/><path fill="#55a344" d="M 149.972656 193.523438 L 155.773438 184.066406 L 149.972656 174.023438 Z M 149.972656 193.523438 " fill-opacity="1" fill-rule="nonzero"/><path fill="#639d57" d="M 178.117188 183.773438 L 183.75 174.023438 L 166.859375 164.273438 Z M 178.117188 183.773438 " fill-opacity="1" fill-rule="nonzero"/><path fill="#333333" d="M 214.027344 141.671875 L 214.027344 167.542969 L 208.367188 164.273438 L 191.480469 174.023438 L 191.480469 193.523438 L 208.367188 203.273438 L 225.253906 193.523438 L 225.253906 147.679688 Z M 213.996094 187.023438 L 208.367188 190.273438 L 202.738281 187.023438 L 202.738281 180.523438 L 208.367188 177.273438 L 213.996094 180.523438 Z M 213.996094 187.023438 " fill-opacity="1" fill-rule="nonzero"/><path fill="#66a060" d="M 195.160156 217.59375 C 195.160156 217.59375 194.828125 214.742188 191.78125 214.742188 C 188.730469 214.742188 186.644531 215.140625 186.644531 216.828125 C 186.644531 218.519531 192.574219 218.519531 194.832031 219.183594 C 197.082031 219.847656 199.070312 221.570312 198.078125 224.617188 C 197.082031 227.667969 194.035156 228 189.328125 228 C 184.621094 228 183.5625 224.089844 183.5625 222.5625 L 186.210938 222.5625 C 186.210938 222.5625 185.882812 224.949219 188.996094 225.347656 C 192.109375 225.746094 195.089844 225.96875 195.492188 223.558594 C 196.023438 220.375 185.417969 221.96875 184.488281 218.851562 C 183.703125 216.222656 184.15625 212.753906 189.460938 212.222656 C 194.761719 211.691406 197.679688 214.035156 197.679688 217.527344 Z M 195.160156 217.59375 " fill-opacity="1" fill-rule="nonzero"/><path fill="#66a060" d="M 169.546875 230.019531 L 175.410156 233.402344 C 178.355469 235.101562 182.035156 232.976562 182.035156 229.578125 L 182.035156 212.734375 L 179.648438 212.734375 L 179.648438 228.910156 C 179.648438 230.769531 177.636719 231.929688 176.027344 231 L 171.9375 228.640625 L 171.9375 211.371094 L 186.890625 202.738281 L 201.84375 211.371094 L 201.84375 228.640625 L 186.890625 237.273438 L 182.582031 234.785156 L 179.769531 235.917969 L 186.890625 240.03125 L 204.234375 230.015625 L 204.234375 209.992188 L 186.890625 199.980469 L 169.546875 209.992188 Z M 169.546875 230.019531 " fill-opacity="1" fill-rule="nonzero"/></svg>