<svg xmlns="http://www.w3.org/2000/svg" xmlns:xlink="http://www.w3.org/1999/xlink" width="500" zoomAndPan="magnify" viewBox="0 0 375 374.999991" height="500" preserveAspectRatio="xMidYMid meet" version="1.0"><defs><clipPath id="d6d350f990"><path d="M 233 152 L 256.6875 152 L 256.6875 225 L 233 225 Z M 233 152 " clip-rule="nonzero"/></clipPath><clipPath id="5c75444d63"><path d="M 190 214 L 253 214 L 253 262.5 L 190 262.5 Z M 190 214 " clip-rule="nonzero"/></clipPath><clipPath id="2a76a39556"><path d="M 122 214 L 185 214 L 185 262.5 L 122 262.5 Z M 122 214 " clip-rule="nonzero"/></clipPath><clipPath id="f68b81cac0"><path d="M 118.6875 152 L 142 152 L 142 225 L 118.6875 225 Z M 118.6875 152 " clip-rule="nonzero"/></clipPath><clipPath id="6c670b32ff"><path d="M 121 112.5 L 185 112.5 L 185 161 L 121 161 Z M 121 112.5 " clip-rule="nonzero"/></clipPath><clipPath id="be75b34e07"><path d="M 190 112.5 L 254 112.5 L 254 161 L 190 161 Z M 190 112.5 " clip-rule="nonzero"/></clipPath></defs><path fill="#000000" d="M 127.34375 150.039062 L 127.347656 150.03125 L 127.34375 150.03125 Z M 127.34375 150.039062 " fill-opacity="1" fill-rule="nonzero"/><path fill="#1b75bb" d="M 190.40625 229.625 L 228.503906 209.074219 L 228.503906 168.367188 L 190.40625 189.945312 Z M 190.40625 229.625 " fill-opacity="1" fill-rule="nonzero"/><g clip-path="url(#d6d350f990)"><path fill="#8ad0f3" d="M 256.625 152.4375 L 233.945312 165.273438 L 233.945312 211.492188 L 256.625 224.351562 Z M 256.625 152.4375 " fill-opacity="1" fill-rule="nonzero"/></g><path fill="#1b75bb" d="M 225.949219 163.65625 L 187.699219 143.019531 L 149.453125 163.65625 L 187.699219 185.3125 Z M 225.949219 163.65625 " fill-opacity="1" fill-rule="nonzero"/><g clip-path="url(#5c75444d63)"><path fill="#8ad0f3" d="M 229.03125 214.875 L 190.40625 235.710938 L 190.40625 262.5 L 252.386719 228.113281 Z M 229.03125 214.875 " fill-opacity="1" fill-rule="nonzero"/></g><g clip-path="url(#2a76a39556)"><path fill="#8ad0f3" d="M 184.972656 235.710938 L 146.355469 214.875 L 122.992188 228.113281 L 184.972656 262.5 Z M 184.972656 235.710938 " fill-opacity="1" fill-rule="nonzero"/></g><g clip-path="url(#f68b81cac0)"><path fill="#8ad0f3" d="M 118.75 224.351562 L 141.429688 211.492188 L 141.429688 165.273438 L 118.75 152.4375 Z M 118.75 224.351562 " fill-opacity="1" fill-rule="nonzero"/></g><g clip-path="url(#6c670b32ff)"><path fill="#8ad0f3" d="M 143.9375 160.539062 L 184.96875 138.398438 L 184.96875 112.5 L 121.40625 147.773438 Z M 143.9375 160.539062 " fill-opacity="1" fill-rule="nonzero"/></g><path fill="#1b75bb" d="M 184.972656 189.945312 L 146.875 168.367188 L 146.875 209.074219 L 184.972656 229.625 Z M 184.972656 189.945312 " fill-opacity="1" fill-rule="nonzero"/><g clip-path="url(#be75b34e07)"><path fill="#8ad0f3" d="M 190.40625 138.398438 L 231.4375 160.542969 L 253.972656 147.773438 L 190.40625 112.5 Z M 190.40625 138.398438 " fill-opacity="1" fill-rule="nonzero"/></g></svg>